<svg xmlns="http://www.w3.org/2000/svg" xmlns:xlink="http://www.w3.org/1999/xlink" width="500" zoomAndPan="magnify" viewBox="0 0 375 374.999991" height="500" preserveAspectRatio="xMidYMid meet" version="1.0"><defs><clipPath id="c057954a18"><path d="M 178.890625 99.851562 L 216.730469 99.851562 L 216.730469 130.605469 L 178.890625 130.605469 Z M 178.890625 99.851562 " clip-rule="nonzero"/></clipPath><clipPath id="99434b69f6"><path d="M 194.265625 99.851562 L 201.304688 99.851562 C 209.796875 99.851562 216.683594 106.734375 216.683594 115.226562 C 216.683594 123.71875 209.796875 130.605469 201.304688 130.605469 L 194.265625 130.605469 C 185.773438 130.605469 178.890625 123.71875 178.890625 115.226562 C 178.890625 106.734375 185.773438 99.851562 194.265625 99.851562 Z M 194.265625 99.851562 " clip-rule="nonzero"/></clipPath></defs><rect x="-37.5" width="450" fill="#ffffff" y="-37.499999" height="449.999989" fill-opacity="1"/><rect x="-37.5" width="450" fill="#ffffff" y="-37.499999" height="449.999989" fill-opacity="1"/><path fill="#5271ff" d="M 324.589844 158.285156 L 318.222656 102.035156 C 317.089844 92.179688 308.71875 84.679688 298.777344 84.679688 L 267.121094 84.679688 L 267.121094 68.632812 C 267.121094 30.960938 236.507812 0.347656 198.835938 0.347656 C 161.160156 0.347656 130.550781 30.960938 130.550781 68.632812 L 130.550781 84.679688 L 98.894531 84.679688 C 88.953125 84.679688 80.578125 92.179688 79.445312 102.035156 L 50.839844 353.109375 C 49.445312 365.144531 58.863281 375.609375 70.984375 375.609375 L 81.625 375.609375 C 125.578125 186.976562 266.421875 160.8125 324.589844 158.285156 Z M 258.398438 105.175781 C 263.195312 105.175781 267.121094 109.097656 267.121094 113.894531 C 267.121094 118.691406 263.195312 122.617188 258.398438 122.617188 C 253.601562 122.617188 249.679688 118.691406 249.679688 113.894531 C 249.679688 109.097656 253.601562 105.175781 258.398438 105.175781 Z M 147.992188 68.722656 C 147.992188 40.726562 170.753906 17.878906 198.835938 17.878906 C 226.917969 17.878906 249.679688 40.726562 249.679688 68.722656 L 249.679688 84.765625 L 147.992188 84.765625 Z M 139.269531 105.175781 C 144.066406 105.175781 147.992188 109.097656 147.992188 113.894531 C 147.992188 118.691406 144.066406 122.617188 139.269531 122.617188 C 134.476562 122.617188 130.550781 118.691406 130.550781 113.894531 C 130.550781 109.097656 134.476562 105.175781 139.269531 105.175781 Z M 139.269531 105.175781 " fill-opacity="1" fill-rule="nonzero"/><g clip-path="url(#c057954a18)"><g clip-path="url(#99434b69f6)"><path fill="#5271ff" d="M 178.890625 99.851562 L 216.730469 99.851562 L 216.730469 130.605469 L 178.890625 130.605469 Z M 178.890625 99.851562 " fill-opacity="1" fill-rule="nonzero"/></g></g></svg>