<svg xmlns="http://www.w3.org/2000/svg" xmlns:xlink="http://www.w3.org/1999/xlink" width="135" zoomAndPan="magnify" viewBox="0 0 101.25 44.999999" height="60" preserveAspectRatio="xMidYMid meet" version="1.0"><defs><g/><clipPath id="ce4e020597"><path d="M 0 5.378906 L 20.101562 5.378906 L 20.101562 32.925781 L 0 32.925781 Z M 0 5.378906 " clip-rule="nonzero"/></clipPath></defs><g clip-path="url(#ce4e020597)"><path fill="#5271ff" d="M 20.125 16.898438 L 19.664062 12.804688 C 19.582031 12.089844 18.972656 11.542969 18.246094 11.542969 L 15.945312 11.542969 L 15.945312 10.375 C 15.945312 7.632812 13.714844 5.40625 10.972656 5.40625 C 8.234375 5.40625 6.003906 7.632812 6.003906 10.375 L 6.003906 11.542969 L 3.703125 11.542969 C 2.976562 11.542969 2.367188 12.089844 2.285156 12.804688 L 0.203125 31.078125 C 0.101562 31.953125 0.789062 32.714844 1.671875 32.714844 L 2.445312 32.714844 C 5.644531 18.988281 15.894531 17.082031 20.125 16.898438 Z M 15.308594 13.035156 C 15.660156 13.035156 15.945312 13.320312 15.945312 13.667969 C 15.945312 14.019531 15.660156 14.304688 15.308594 14.304688 C 14.960938 14.304688 14.675781 14.019531 14.675781 13.667969 C 14.675781 13.320312 14.960938 13.035156 15.308594 13.035156 Z M 7.273438 10.382812 C 7.273438 8.34375 8.929688 6.683594 10.972656 6.683594 C 13.019531 6.683594 14.675781 8.34375 14.675781 10.382812 L 14.675781 11.550781 L 7.273438 11.550781 Z M 6.640625 13.035156 C 6.988281 13.035156 7.273438 13.320312 7.273438 13.667969 C 7.273438 14.019531 6.988281 14.304688 6.640625 14.304688 C 6.289062 14.304688 6.003906 14.019531 6.003906 13.667969 C 6.003906 13.320312 6.289062 13.035156 6.640625 13.035156 Z M 6.640625 13.035156 " fill-opacity="1" fill-rule="nonzero"/></g><g fill="#000000" fill-opacity="1"><g transform="translate(7.842049, 34.456965)"><g><path d="M 3.515625 -2.125 L 3.515625 -4.3125 L 7.203125 -4.3125 L 7.203125 -6.390625 L 3.515625 -6.390625 L 3.515625 -8.5 L 7.59375 -8.5 L 7.59375 -10.625 L 1.21875 -10.625 L 1.21875 0 L 7.765625 0 L 7.765625 -2.125 Z M 3.515625 -2.125 "/></g></g></g><g fill="#000000" fill-opacity="1"><g transform="translate(16.33153, 34.456965)"><g><path d="M 5.078125 -1.96875 C 4.25 -1.96875 3.796875 -2.4375 3.796875 -3.21875 L 3.796875 -6.40625 L 6.03125 -6.40625 L 6.03125 -8.203125 L 3.765625 -8.203125 L 3.765625 -10.328125 L 3.34375 -10.328125 L 0.109375 -6.890625 L 0.109375 -6.40625 L 1.578125 -6.40625 L 1.578125 -2.921875 C 1.578125 -1.109375 2.6875 0 4.5 0 L 6.078125 0 L 6.078125 -1.96875 Z M 5.078125 -1.96875 "/></g></g></g><g fill="#000000" fill-opacity="1"><g transform="translate(22.8619, 34.456965)"><g><path d="M 5.078125 -1.96875 C 4.25 -1.96875 3.796875 -2.4375 3.796875 -3.21875 L 3.796875 -6.40625 L 6.03125 -6.40625 L 6.03125 -8.203125 L 3.765625 -8.203125 L 3.765625 -10.328125 L 3.34375 -10.328125 L 0.109375 -6.890625 L 0.109375 -6.40625 L 1.578125 -6.40625 L 1.578125 -2.921875 C 1.578125 -1.109375 2.6875 0 4.5 0 L 6.078125 0 L 6.078125 -1.96875 Z M 5.078125 -1.96875 "/></g></g></g><g fill="#000000" fill-opacity="1"><g transform="translate(29.392271, 34.456965)"><g><path d="M 9.015625 -4.109375 C 9.015625 -6.484375 7.296875 -8.421875 4.765625 -8.421875 C 2.34375 -8.421875 0.515625 -6.5625 0.515625 -4.09375 C 0.515625 -1.640625 2.359375 0.25 4.765625 0.25 C 6.6875 0.25 8.25 -0.890625 8.84375 -2.6875 L 6.515625 -2.6875 C 6.1875 -2.09375 5.546875 -1.734375 4.765625 -1.734375 C 3.6875 -1.734375 2.96875 -2.359375 2.765625 -3.484375 L 8.96875 -3.484375 C 9 -3.6875 9.015625 -3.90625 9.015625 -4.109375 Z M 4.765625 -6.53125 C 5.765625 -6.53125 6.484375 -5.984375 6.796875 -4.984375 L 2.828125 -4.984375 C 3.078125 -5.953125 3.78125 -6.53125 4.765625 -6.53125 Z M 4.765625 -6.53125 "/></g></g></g><g fill="#000000" fill-opacity="1"><g transform="translate(38.929648, 34.456965)"><g><path d="M 5.25 -8.25 C 4.1875 -8.25 3.46875 -7.90625 2.875 -7.1875 L 2.46875 -8.203125 L 1.0625 -8.203125 L 1.0625 0 L 3.28125 0 L 3.28125 -4.25 C 3.28125 -5.59375 3.765625 -6.15625 5.015625 -6.15625 L 5.984375 -6.15625 L 5.984375 -8.25 Z M 5.25 -8.25 "/></g></g></g><g fill="#000000" fill-opacity="1"><g transform="translate(45.11072, 34.456965)"><g><path d="M 7.75 -8.203125 L 7.515625 -7.421875 C 6.796875 -8.046875 5.875 -8.421875 4.8125 -8.421875 C 2.359375 -8.421875 0.515625 -6.578125 0.515625 -4.09375 C 0.515625 -1.625 2.359375 0.25 4.8125 0.25 C 5.859375 0.25 6.78125 -0.125 7.46875 -0.75 L 7.671875 0 L 9.40625 0 L 9.40625 -8.203125 Z M 5 -1.859375 C 3.703125 -1.859375 2.765625 -2.828125 2.765625 -4.09375 C 2.765625 -5.390625 3.703125 -6.34375 5 -6.34375 C 6.28125 -6.34375 7.234375 -5.390625 7.234375 -4.09375 C 7.234375 -2.8125 6.28125 -1.859375 5 -1.859375 Z M 5 -1.859375 "/></g></g></g><g fill="#000000" fill-opacity="1"><g transform="translate(55.589687, 34.456965)"><g><path d="M 5.078125 -1.96875 C 4.25 -1.96875 3.796875 -2.4375 3.796875 -3.21875 L 3.796875 -6.40625 L 6.03125 -6.40625 L 6.03125 -8.203125 L 3.765625 -8.203125 L 3.765625 -10.328125 L 3.34375 -10.328125 L 0.109375 -6.890625 L 0.109375 -6.40625 L 1.578125 -6.40625 L 1.578125 -2.921875 C 1.578125 -1.109375 2.6875 0 4.5 0 L 6.078125 0 L 6.078125 -1.96875 Z M 5.078125 -1.96875 "/></g></g></g><g fill="#000000" fill-opacity="1"><g transform="translate(62.120054, 34.456965)"><g><path d="M 5.75 -8.390625 C 4.765625 -8.390625 3.90625 -8.015625 3.28125 -7.421875 L 3.28125 -11.140625 L 1.0625 -11.140625 L 1.0625 0 L 3.28125 0 L 3.28125 -4.296875 C 3.28125 -5.640625 4.015625 -6.4375 5.125 -6.4375 C 6.109375 -6.4375 6.546875 -5.828125 6.546875 -4.609375 L 6.546875 0 L 8.765625 0 L 8.765625 -4.984375 C 8.765625 -7.0625 7.609375 -8.390625 5.75 -8.390625 Z M 5.75 -8.390625 "/></g></g></g></svg>